<?xml version="1.0" encoding="utf-8"?>
<!-- Generator: Adobe Illustrator 23.0.0, SVG Export Plug-In . SVG Version: 6.00 Build 0)  -->
<svg version="1.1" id="Capa_1" xmlns="http://www.w3.org/2000/svg" xmlns:xlink="http://www.w3.org/1999/xlink" x="0px" y="0px"
	 viewBox="0 0 1984.25 2558.83" style="enable-background:new 0 0 1984.25 2558.83;" xml:space="preserve">
<style type="text/css">
	.st0{fill:#CE0F69;}
	.st1{fill:#FFFFFF;}
</style>
<g>
	<g>
		<path class="st0" d="M1319.02,1506.41l-79.04-56.45l-5.64,13.01c-82.82,191.49-246.58,291.41-486.7,296.95l-15.14,0.36
			l27.68,89.67c2.37,5.24,9.54,21.06,23.41,21.06c0.18,0,0.36-0.01,0.53-0.01c11.03-0.31,17.91-10.03,22.69-20.4
			c236.29-13.43,407.19-126.28,508.02-335.49L1319.02,1506.41z"/>
		<path class="st0" d="M1266.86,2020.91l53.35-53.33l-7.65-8.1c-32.42-34.29-65.36-64.32-97.9-89.25l-7.65-5.86l-54.11,49.95
			l11.01,8.26c29.58,22.22,61.52,52.28,94.88,89.36L1266.86,2020.91z"/>
		<path class="st0" d="M1130.07,1955.64l-7.12-5.86l-58.18,45.66l10.88,9.07c33.32,27.74,66.44,58.95,98.42,92.79l7.79,8.22
			l53.75-49.63l-7.97-8.43C1195.17,2013.15,1162.34,1982.26,1130.07,1955.64z"/>
		<path class="st0" d="M846.14,1943.48l-48.92,79.06l10.37,5.86c43.03,24.35,90.48,54.71,141.03,90.27l9.61,6.76l52.43-78.69
			l-9.09-6.43c-45.73-32.37-94.81-63.16-145.89-91.52L846.14,1943.48z"/>
		<path class="st0" d="M734.64,568.89c93.12-65.51,174.8-146.17,243.21-240.1v202.34c0,10.65-2.91,22.03-22.62,25.45H884.7
			l15.51,85.39h89.1c50.23,0,76.77-27.52,76.77-79.61V241.57h238.54v-85.39h-238.54v-117c4.68-4.74,10.49-12.63,8.17-21.99
			c-3.13-12.52-17.95-15.83-22.8-16.92L977.85,0v156.18H676.83v85.39H934.1c-66.09,98.64-156.5,185.08-269.02,257.18l-12.65,8.1
			l74.75,67.29L734.64,568.89z"/>
		<path class="st0" d="M872.33,2292.74l59.33-77.88l-9.44-6.89c-49.54-36.17-98.76-67.05-146.29-91.78l-8.83-4.6l-56.16,78.65
			l11.98,6c37.03,18.53,84.25,48.76,140.34,89.87L872.33,2292.74z"/>
		<path class="st0" d="M1254.11,2130.72l-7.63,12.32c-101.93,164.94-256.17,271.17-458.44,315.72l-16,3.52l48.56,76.28
			c5.64,8.88,14.3,20.26,25.96,20.26c0.96,0,1.94-0.08,2.93-0.25c10.73-1.73,15.96-12.3,18.51-19.96
			c201.36-65.16,352.43-176.98,449.08-332.41l4.79-7.72L1254.11,2130.72z"/>
		<path class="st0" d="M1256.39,877.88l-7.36,13.33c-75.3,136.31-196.05,222.3-359.03,255.72V740.4c5.7-4.91,12.76-12.93,10.15-22.5
			c-3.28-12.06-18.25-13.74-24.45-14.37h-73.91v481l-7.71,23.09l55.97,41.99l4.86-0.82c214.6-36.37,370.17-136.68,462.41-298.11
			l4.34-7.6L1256.39,877.88z"/>
		<path class="st0" d="M896.34,1518.54l8.09,7.49l70.11-70.13l-8.64-8.09c-60.88-57.03-112.11-98.58-152.31-123.48L805,1319
			l-62.56,77.26l10.46,6.97C797.53,1432.98,845.79,1471.77,896.34,1518.54z"/>
		<g>
			<path class="st1" d="M1268.18,2056.98l-87.41,80.72l-23.36-24.66c-31.4-33.21-63.84-63.8-96.42-90.92l-32.65-27.22l14.64-11.49
				c-10.99,0.46-22.04,0.75-33.2,0.75c-18.18,0-36.02-0.69-53.71-1.7c19.97,12.8,39.81,25.72,58.77,39.14l27.26,19.32l-77.81,116.78
				l-28.82-20.27c-49.88-35.09-96.69-65.06-139.14-89.08l-31.13-17.59l43.19-69.78c-125.46-30.32-236.57-90.41-333.16-180.67
				c-145.48-135.91-218.2-302.16-218.2-498.76c0-193.74,70.85-359.75,212.54-498.02c113.88-111.13,246.2-177.5,396.88-199.31
				l-9.18-50.54h97.97c0-0.02,0-0.04-0.04-0.03c-0.31,0-0.25-0.88-0.25-2.51V395.66c-60.71,73.42-130.26,137.9-207.1,191.96
				l-22.4,15.79l-110.7-99.65l38-24.31c65.82-42.17,123.75-89.54,173.62-141.33c-201.72,31.53-379.34,119.55-532.61,264.61
				C97.9,788.08,0,1010.58,0,1270.25c0,269.08,96.49,498.18,289.52,687.29c115.3,113,245.35,191.95,389.9,237.43l80.62-112.89
				l26.49,13.8c48.56,25.26,98.77,56.76,149.21,93.59l28.33,20.68l-22.83,29.97c16.57,0.71,33.29,1.09,50.17,1.09
				c55.49,0,109.17-3.89,161.21-11.33c27.28-30.12,52.17-62.97,74.35-98.87l22.89-36.93l90.28,90.3
				c132.11-46.42,251.07-121.22,356.72-224.71c191.57-187.7,287.39-417.51,287.39-689.42c0-256.84-96.98-478.63-290.93-665.39
				c-172.14-165.74-373.63-257.76-604.34-276.41v233.92c0,7.12-0.62,13.76-1.47,20.2c162.61,19.74,302.9,85.47,420.79,197.42
				c143.1,135.91,214.67,303.09,214.67,501.56c0,190.95-70.38,355.79-211.13,494.53c-63.07,62.16-131.52,110.27-205.26,144.58
				c7.56,7.49,15.11,15.14,22.63,23.08l22.96,24.3l-89.27,83.61"/>
		</g>
	</g>
</g>
</svg>
