<?xml version="1.0" encoding="utf-8"?>
<!-- Generator: Adobe Illustrator 23.0.0, SVG Export Plug-In . SVG Version: 6.00 Build 0)  -->
<svg version="1.1" xmlns="http://www.w3.org/2000/svg" xmlns:xlink="http://www.w3.org/1999/xlink" x="0px" y="0px"
	 viewBox="0 0 4677.17 1682.45" style="enable-background:new 0 0 4677.17 1682.45;" xml:space="preserve">
<style type="text/css">
	.st0{fill:#FFFFFF;}
	.st1{fill:#CE0F69;}
</style>
<g id="Capa_2">
</g>
<g id="Capa_1">
	<g>
		<g>
			<path class="st0" d="M1595.38,627.87v149.93c34.1-59.97,67.48-103.32,100.11-130.08c32.63-26.75,75.1-40.13,127.43-40.13
				c14.7,0,35.86,3.53,63.5,10.59l-46.74,153.45c-29.4-5.87-48.8-8.82-58.2-8.82c-51.74,0-95.11,18.08-130.08,54.23
				c-34.99,36.16-52.47,81.29-52.47,135.38v403.03h-153.46V627.87H1595.38z"/>
			<path class="st0" d="M2695.22,1021.2h-620.87c13.53,74.68,44.24,129.2,92.16,163.6c47.92,34.39,100.11,51.59,156.55,51.59
				c87,0,159.92-36.16,218.72-108.48l112,84.67c-84.09,108.79-196.67,163.16-337.78,163.16c-108.19,0-198.74-37.04-271.64-111.13
				S1935,1098.52,1935,988.57c0-102.88,36.89-192.11,110.69-267.66c73.78-75.54,163.89-113.33,270.31-113.33
				c104.64,0,194.31,38.37,268.98,115.09C2659.64,799.4,2696.39,898.92,2695.22,1021.2z M2090.22,898.62h444.49
				c-49.4-99.95-122.3-149.93-218.72-149.93C2210.74,748.69,2135.49,798.67,2090.22,898.62z"/>
			<path class="st0" d="M2843.38,1355.45V627.87h149.93v120.82c44.1-48.8,84.08-84.51,119.94-107.15
				c35.86-22.63,75.85-33.96,119.95-33.96c65.83,0,122.15,21.76,168.89,65.26c46.74,43.51,70.11,95.84,70.11,156.98v525.62h-153.45
				V874.8c0-39.39-12.8-72.01-38.37-97.89c-25.57-25.87-58.06-38.81-97.45-38.81c-51.14,0-95.25,21.61-132.29,64.82
				c-37.03,43.21-55.56,95.4-55.56,156.53v395.98H2843.38z"/>
			<path class="st0" d="M3562.14,627.87h174.07l263.92,395.26l182.44-395.26h158.3l-491.49,1054.58h-160.25l240.27-506.14
				L3562.14,627.87z"/>
			<path class="st0" d="M4440.81,388.87c0-31.76,11.77-59.23,35.28-82.46c23.5-23.22,51.44-34.84,83.79-34.84
				c31.75,0,59.22,11.61,82.45,34.84c23.22,23.23,34.84,50.7,34.84,82.46c0,32.34-11.61,59.97-34.84,82.9
				c-23.22,22.92-50.7,34.39-82.45,34.39c-32.35,0-60.28-11.47-83.79-34.39C4452.58,448.84,4440.81,421.21,4440.81,388.87z
				 M4484.03,627.87h151.69v727.58h-151.69V627.87z"/>
			<g>
				<path class="st1" d="M823.68,940.7l-49.36-35.25l-3.52,8.13c-51.72,119.58-153.98,181.97-303.92,185.43l-9.45,0.22l17.29,55.99
					c1.48,3.27,5.96,13.15,14.62,13.15c0.11,0,0.22-0.01,0.33-0.01c6.89-0.2,11.19-6.26,14.17-12.74
					c147.56-8.38,254.27-78.85,317.24-209.5L823.68,940.7z"/>
				<path class="st1" d="M791.11,1261.98l33.31-33.3l-4.78-5.06c-20.25-21.41-40.82-40.17-61.14-55.73l-4.78-3.66l-33.79,31.19
					l6.88,5.16c18.47,13.88,38.41,32.65,59.25,55.8L791.11,1261.98z"/>
				<path class="st1" d="M705.68,1221.22l-4.44-3.66l-36.33,28.51l6.79,5.67c20.81,17.32,41.49,36.81,61.46,57.94l4.86,5.14
					l33.57-30.99l-4.97-5.26C746.33,1257.14,725.83,1237.84,705.68,1221.22z"/>
				<path class="st1" d="M528.38,1213.63L497.84,1263l6.48,3.66c26.87,15.2,56.5,34.17,88.07,56.37l6,4.22l32.74-49.14l-5.67-4.02
					c-28.56-20.21-59.21-39.44-91.1-57.15L528.38,1213.63z"/>
				<path class="st1" d="M458.75,355.25c58.15-40.91,109.16-91.28,151.87-149.93v126.35c0,6.65-1.82,13.76-14.13,15.9h-44.04
					l9.68,53.32h55.64c31.36,0,47.94-17.19,47.94-49.71V150.86h148.96V97.53H665.72V24.47c2.92-2.96,6.55-7.89,5.1-13.73
					c-1.96-7.82-11.21-9.89-14.24-10.56L610.63,0v97.53H422.65v53.32h160.66c-41.27,61.6-97.73,115.58-167.99,160.6l-7.9,5.06
					l46.68,42.02L458.75,355.25z"/>
				<path class="st1" d="M544.73,1431.73l37.05-48.64l-5.9-4.3c-30.94-22.59-61.67-41.87-91.35-57.31l-5.51-2.87l-35.07,49.11
					l7.48,3.74c23.13,11.57,52.61,30.45,87.64,56.12L544.73,1431.73z"/>
				<path class="st1" d="M783.14,1330.55l-4.77,7.69c-63.65,103-159.97,169.33-286.27,197.16l-9.99,2.2l30.32,47.64
					c3.52,5.55,8.93,12.65,16.21,12.65c0.6,0,1.21-0.05,1.83-0.15c6.7-1.08,9.96-7.68,11.56-12.46
					c125.74-40.69,220.08-110.52,280.43-207.57l2.99-4.82L783.14,1330.55z"/>
				<path class="st1" d="M784.57,548.2l-4.6,8.32c-47.02,85.12-122.42,138.82-224.2,159.69V462.35c3.56-3.07,7.97-8.08,6.34-14.05
					c-2.05-7.53-11.4-8.58-15.27-8.97h-46.16V739.7l-4.81,14.42l34.95,26.22l3.03-0.51C667.86,757.12,765,694.48,822.6,593.67
					l2.71-4.74L784.57,548.2z"/>
				<path class="st1" d="M559.73,948.27l5.05,4.67l43.78-43.79l-5.39-5.05c-38.02-35.61-70.01-61.56-95.11-77.11l-5.36-3.33
					l-39.06,48.24l6.53,4.35C498.03,894.84,528.16,919.07,559.73,948.27z"/>
				<g>
					<path class="st0" d="M791.93,1284.51l-54.58,50.4l-14.59-15.4c-19.61-20.74-39.87-39.84-60.21-56.78l-20.39-17l9.15-7.18
						c-6.86,0.29-13.76,0.47-20.73,0.47c-11.35,0-22.49-0.43-33.54-1.06c12.47,7.99,24.86,16.06,36.7,24.44l17.02,12.07
						l-48.59,72.92l-18-12.66c-31.15-21.91-60.38-40.63-86.89-55.63l-19.44-10.98l26.97-43.58
						c-78.35-18.93-147.73-56.46-208.05-112.82c-90.84-84.87-136.26-188.69-136.26-311.46c0-120.99,44.24-224.65,132.72-310.99
						c71.11-69.39,153.74-110.84,247.83-124.46l-5.73-31.56h61.18c0-0.01,0-0.03-0.03-0.02c-0.2,0-0.15-0.55-0.15-1.57v-84.59
						c-37.91,45.85-81.34,86.11-129.33,119.87l-13.99,9.86l-69.13-62.23l23.73-15.18c41.1-26.33,77.28-55.92,108.42-88.25
						c-125.97,19.69-236.88,74.66-332.59,165.24C61.14,492.13,0,631.07,0,793.22c0,168.03,60.26,311.09,180.79,429.19
						c72,70.56,153.21,119.87,243.48,148.26l50.34-70.5l16.55,8.61c30.32,15.78,61.68,35.44,93.18,58.45l17.69,12.91l-14.26,18.71
						c10.35,0.44,20.79,0.68,31.33,0.68c34.65,0,68.17-2.43,100.67-7.07c17.03-18.81,32.58-39.32,46.43-61.74l14.3-23.06
						l56.38,56.39c82.5-28.99,156.78-75.69,222.76-140.32c119.63-117.21,179.47-260.72,179.47-430.51
						c0-160.38-60.56-298.89-181.67-415.51C949.92,274.21,824.1,216.75,680.03,205.1v146.07c0,4.45-0.39,8.59-0.92,12.61
						c101.54,12.32,189.15,53.37,262.77,123.28c89.36,84.87,134.05,189.27,134.05,313.2c0,119.24-43.95,222.18-131.84,308.81
						c-39.38,38.81-82.13,68.86-128.18,90.29c4.72,4.68,9.43,9.45,14.13,14.41l14.34,15.18l-55.75,52.21"/>
				</g>
			</g>
		</g>
	</g>
</g>
</svg>
